<svg width="17" height="17" viewBox="0 0 17 17" fill="none" xmlns="http://www.w3.org/2000/svg">
<path d="M6.74999 0.900024C8.30151 0.900024 9.78948 1.51636 10.8866 2.61345C11.9837 3.71054 12.6 5.19851 12.6 6.75002C12.6 8.19902 12.069 9.53102 11.196 10.557L11.439 10.8H12.15L16.65 15.3L15.3 16.65L10.8 12.15V11.439L10.557 11.196C9.53099 12.069 8.19899 12.6 6.74999 12.6C5.19848 12.6 3.71051 11.9837 2.61342 10.8866C1.51633 9.78951 0.899994 8.30154 0.899994 6.75002C0.899994 5.19851 1.51633 3.71054 2.61342 2.61345C3.71051 1.51636 5.19848 0.900024 6.74999 0.900024ZM6.74999 2.70002C4.49999 2.70002 2.69999 4.50002 2.69999 6.75002C2.69999 9.00002 4.49999 10.8 6.74999 10.8C8.99999 10.8 10.8 9.00002 10.8 6.75002C10.8 4.50002 8.99999 2.70002 6.74999 2.70002Z" fill="#909597"/>
</svg>
